{
  "asset": {
    "version": "2.0",
    "generator": "THREE.GLTFExporter"
  },
  "scenes": [
    {
      "name": "Scene",
      "nodes": [
        1
      ]
    }
  ],
  "scene": 0,
  "nodes": [
    {
      "matrix": [
        1.9999512614107895,
        -0.013962520595923103,
        -2.6020852139652106e-18,
        0,
        0,
        6.661338147750939e-16,
        -1.9999999999999998,
        0,
        0.013962520595923105,
        1.9999512614107895,
        6.661338147750939e-16,
        0,
        -0.12507354185458106,
        0.029634039972561643,
        -2.43529893968983,
        1
      ],
      "name": "Cylinder",
      "mesh": 0
    },
    {
      "name": "silo.obj",
      "children": [
        0
      ]
    }
  ],
  "bufferViews": [
    {
      "buffer": 0,
      "byteOffset": 0,
      "byteLength": 3384,
      "target": 34962,
      "byteStride": 12
    },
    {
      "buffer": 0,
      "byteOffset": 3384,
      "byteLength": 3384,
      "target": 34962,
      "byteStride": 12
    }
  ],
  "buffers": [
    {
      "byteLength": 6768,
      "uri": "data:application/octet-stream;base64,"
    }
  ],
  "accessors": [
    {
      "bufferView": 0,
      "componentType": 5126,
      "count": 282,
      "max": [
        1.1298919916152954,
        1.1298919916152954,
        4.322573184967041
      ],
      "min": [
        -1.1298919916152954,
        -1.1298919916152954,
        -0.007199999876320362
      ],
      "type": "VEC3"
    },
    {
      "bufferView": 1,
      "componentType": 5126,
      "count": 282,
      "max": [
        0.9807854890823364,
        0.9807855486869812,
        0.7824648022651672
      ],
      "min": [
        -0.9807854890823364,
        -0.9807855486869812,
        -1
      ],
      "type": "VEC3"
    }
  ],
  "materials": [
    {
      "pbrMetallicRoughness": {
        "baseColorFactor": [
          1,
          1,
          1,
          0.22
        ],
        "metallicFactor": 0.5,
        "roughnessFactor": 0.5
      },
      "emissiveFactor": [
        0.913098651791473,
        0.913098651791473,
        0.913098651791473
      ],
      "alphaMode": "BLEND"
    }
  ],
  "meshes": [
    {
      "primitives": [
        {
          "mode": 4,
          "attributes": {
            "POSITION": 0,
            "NORMAL": 1
          },
          "material": 0
        }
      ]
    }
  ]
}